<svg width="512" height="516" viewBox="0 0 512 516" fill="none" xmlns="http://www.w3.org/2000/svg">
<path d="M179.757 0.588274C154.572 5.42607 135.719 30.1842 128.747 67.3926C127.395 74.7916 126.399 108.087 127.182 119.47C129.743 154.971 146.675 184.069 169.655 192.393C174.706 194.243 185.591 194.883 191.425 193.673C193.63 193.247 197.97 191.61 200.958 190.116C219.882 180.654 233.827 158.03 239.234 128.079C240.514 120.751 241.937 87.8109 241.368 77.5662C239.945 52.31 231.621 30.6111 217.748 15.8843C208.713 6.2798 198.326 1.01514 187.227 0.51713C184.097 0.374842 180.753 0.445986 179.757 0.588274Z" fill="#FF834F"/>
<path d="M337.341 16.8803C312.939 23.4256 293.872 46.7609 285.121 80.6966C281.208 95.9214 280.568 102.538 280.71 129.644C280.853 161.232 282.062 171.334 287.825 188.693C302.907 233.87 337.057 255.569 368.716 239.917C393.118 227.894 410.62 196.804 414.533 158.457C415.813 146.149 415.102 100.546 413.537 91.9374C404.928 46.1206 378.605 15.6709 347.657 15.8843C343.958 15.8843 339.333 16.3112 337.341 16.8803Z" fill="#FF834F"/>
<path d="M46.0773 166.283C28.3624 170.267 13.6356 186.061 5.88085 209.325C0.189317 226.542 -1.02013 239.49 0.75847 263.821C1.46991 273.141 2.67936 284.738 3.3908 289.576C9.22462 325.575 30.141 353.961 54.4011 358.728C60.2349 359.937 69.4125 359.297 74.7483 357.376C90.7558 351.756 104.487 334.966 111.032 313.195C114.731 300.674 115.372 296.121 115.372 279.758C115.372 240.842 112.384 222.629 102.779 203.278C96.0204 189.689 84.7797 176.812 75.1752 171.405C65.6419 166.141 54.9703 164.22 46.0773 166.283Z" fill="#FF834F"/>
<path d="M459.709 183.358C450.958 184.994 444.057 187.911 436.374 193.104C418.588 205.128 403.647 225.688 395.039 249.877C393.758 253.577 391.34 259.909 389.703 263.822C386.502 271.79 383.087 284.098 381.735 292.919C380.526 300.461 380.526 317.251 381.735 323.867C385.506 345.068 395.466 359.724 410.264 365.984C419.797 369.969 431.892 369.613 443.773 365.06C454.16 361.076 467.25 351.044 475.859 340.444C484.396 329.986 492.435 315.828 496.917 303.235C498.127 299.892 500.403 294.129 502.04 290.429C508.514 275.774 512 258.984 512 243.047C512 221.491 506.664 206.124 495.281 194.669C488.594 187.911 482.902 184.852 474.365 183.286C467.819 182.148 466.112 182.148 459.709 183.358Z" fill="#FF834F"/>
<path d="M211.772 313.551C188.223 316.61 161.9 326.215 143.118 338.594C118.431 354.886 101.783 376.941 97.6567 399.066C96.1626 406.892 96.1626 432.148 97.6567 439.832C100.858 456.764 108.897 470.851 122.984 484.368C140.272 500.874 160.975 510.62 185.946 514.106C210.491 517.521 237.17 515.672 276.015 507.703C295.153 503.791 294.797 503.933 293.516 503.008C292.734 502.51 292.876 502.439 293.872 502.723C299.848 504.715 315.144 509.126 320.978 510.549C335.634 514.249 340.756 514.889 356.194 514.889C373.838 514.889 379.245 513.751 391.411 507.846C408.272 499.522 419.939 486.431 423.781 471.491C425.133 466.155 425.631 457.262 425.275 442.393C424.991 429.587 418.232 416.141 405.497 403.122C398.81 396.292 390.13 389.177 370.139 374.237C320.978 337.385 288.323 320.666 253.391 314.547C242.364 312.626 222.372 312.128 211.772 313.551Z" fill="#FF834F"/>
</svg>
